<?xml version="1.0" encoding="utf-8"?>
<!-- Generator: Adobe Illustrator 15.1.0, SVG Export Plug-In . SVG Version: 6.00 Build 0)  -->
<!DOCTYPE svg PUBLIC "-//W3C//DTD SVG 1.1//EN" "http://www.w3.org/Graphics/SVG/1.1/DTD/svg11.dtd">
<svg version="1.1" id="Layer_1" xmlns="http://www.w3.org/2000/svg" xmlns:xlink="http://www.w3.org/1999/xlink" x="0px" y="0px"
	 width="300px" height="53.648px" viewBox="0 0 300 53.648" enable-background="new 0 0 300 53.648" xml:space="preserve">
<g>
	<g>
		<path fill="#B68643" d="M49.266,48.641l-0.899,0.348c-0.601-0.656-1.5-1.004-2.601-1.004c-0.85,0-1.55,0.203-2.05,0.656
			c-0.552,0.445-0.8,1-0.8,1.648c0,0.699,0.248,1.246,0.8,1.65c0.5,0.4,1.248,0.654,2.101,0.654c1.096,0,1.897-0.355,2.548-1.004
			l0.85,0.496c-0.448,0.508-0.95,0.906-1.5,1.105c-0.548,0.248-1.198,0.348-2,0.348c-1.102,0-1.952-0.246-2.702-0.793
			c-0.798-0.605-1.199-1.41-1.199-2.398c0-1.008,0.397-1.809,1.25-2.406c0.699-0.547,1.602-0.797,2.651-0.797
			C47.316,47.036,48.464,47.583,49.266,48.641z"/>
		<path fill="#B68643" d="M59.37,53.344h-1v-2.703h-4.904v2.703h-0.998v-6.109h0.998v2.451h4.904v-2.451h1V53.344z"/>
		<path fill="#B68643" d="M69.322,53.344h-6.351v-6.109h6.152v0.906h-5.156v1.545h3.554v0.896h-3.554v1.813h5.353v0.949H69.322z"/>
		<path fill="#B68643" d="M78.076,48.69c-0.9-0.447-1.802-0.705-2.754-0.705c-0.599,0-1.099,0.055-1.45,0.203
			c-0.348,0.148-0.5,0.348-0.5,0.602c0,0.248,0.202,0.449,0.55,0.605c0.252,0.094,0.65,0.145,1.25,0.199
			c0.85,0.047,1.404,0.094,1.65,0.148c0.75,0.094,1.35,0.291,1.702,0.547c0.352,0.25,0.55,0.65,0.55,1.152
			c0,0.645-0.3,1.152-0.851,1.502c-0.55,0.348-1.401,0.549-2.449,0.549c-1.551,0-2.755-0.348-3.604-1.053l0.554-0.75
			c0.948,0.596,2,0.85,3.101,0.85c0.7,0,1.25-0.1,1.647-0.301c0.402-0.203,0.555-0.451,0.555-0.797c0-0.4-0.252-0.656-0.752-0.75
			c-0.252-0.051-0.952-0.152-2.103-0.203c-0.998-0.053-1.698-0.201-2.1-0.402c-0.448-0.25-0.7-0.646-0.7-1.195
			c0-0.559,0.252-1,0.8-1.355c0.55-0.348,1.3-0.502,2.252-0.502c1.298,0,2.4,0.307,3.3,0.902L78.076,48.69z"/>
		<path fill="#B68643" d="M87.73,48.141h-2.9v5.203h-1.002v-5.203h-2.902v-0.906h6.853v0.906H87.73z"/>
		<path fill="#B68643" d="M96.784,53.344H90.43v-6.109h6.152v0.906h-5.154v1.545h3.553v0.896h-3.553v1.813h5.354v0.949H96.784z"/>
		<path fill="#B68643" d="M106.732,53.344h-1.148l-1.65-2.303h-3.1v2.303h-1v-6.109h4.8c0.65,0,1.152,0.156,1.5,0.504
			c0.353,0.355,0.55,0.795,0.55,1.398c0,0.504-0.149,0.949-0.449,1.254c-0.252,0.301-0.65,0.504-1.15,0.547L106.732,53.344z
			 M104.484,50.09c0.798,0,1.149-0.301,1.149-0.949c0-0.652-0.401-1-1.25-1h-3.552v1.949H104.484z"/>
		<path fill="#B68643" d="M116.188,48.141h-5.151v1.545h3.55v0.896h-3.55v2.709h-1V47.19h6.151V48.141z"/>
		<path fill="#B68643" d="M119.89,53.344h-1v-6.109h1V53.344z"/>
		<path fill="#B68643" d="M130.042,53.344h-6.35v-6.109h6.153v0.906h-5.155v1.545h3.554v0.896h-3.554v1.813h5.354v0.949H130.042z"/>
		<path fill="#B68643" d="M138.944,53.344h-5.7v-6.109h1v5.205h4.7V53.344z"/>
		<path fill="#B68643" d="M144.898,47.239c1.048,0,1.897,0.301,2.498,0.855c0.6,0.547,0.951,1.301,0.951,2.25
			c0,0.846-0.352,1.596-1.002,2.145c-0.598,0.547-1.348,0.803-2.25,0.803h-4.048V47.19h3.853v0.049H144.898z M145.146,52.442
			c0.598,0,1.102-0.203,1.5-0.598c0.401-0.4,0.6-0.904,0.6-1.5c0-0.656-0.198-1.203-0.65-1.605
			c-0.396-0.402-0.947-0.598-1.649-0.598h-2.95v4.254h3.152v0.047H145.146z"/>
		<path fill="#B68643" d="M160.902,48.69c-0.898-0.447-1.797-0.705-2.748-0.705c-0.604,0-1.107,0.055-1.451,0.203
			c-0.357,0.148-0.504,0.348-0.504,0.602c0,0.248,0.199,0.449,0.547,0.605c0.254,0.094,0.658,0.145,1.252,0.199
			c0.85,0.047,1.4,0.094,1.654,0.148c0.75,0.094,1.348,0.291,1.703,0.547c0.348,0.25,0.549,0.65,0.549,1.152
			c0,0.645-0.309,1.152-0.857,1.502c-0.549,0.348-1.395,0.549-2.455,0.549c-1.545,0-2.746-0.348-3.598-1.053l0.549-0.75
			c0.953,0.596,2.004,0.85,3.105,0.85c0.695,0,1.25-0.1,1.645-0.301c0.402-0.203,0.549-0.451,0.549-0.797
			c0-0.4-0.242-0.656-0.75-0.75c-0.24-0.051-0.943-0.152-2.098-0.203c-0.998-0.053-1.701-0.201-2.096-0.402
			c-0.457-0.25-0.707-0.646-0.707-1.195c0-0.559,0.25-1,0.799-1.355c0.549-0.348,1.299-0.502,2.252-0.502
			c1.297,0,2.402,0.307,3.301,0.902L160.902,48.69z"/>
		<path fill="#B68643" d="M170.957,48.141h-2.898v5.203h-1.004v-5.203h-2.895v-0.906h6.844v0.906H170.957z"/>
		<path fill="#B68643" d="M173.859,53.344h-1.301V52.44h1.301V53.344z"/>
		<path fill="#B68643" d="M187.211,53.344h-5.705v-6.109h1.004v5.205h4.701V53.344z"/>
		<path fill="#B68643" d="M197.059,50.29c0,1-0.393,1.797-1.246,2.398c-0.695,0.547-1.598,0.805-2.65,0.805
			c-1.098,0-1.951-0.258-2.701-0.805c-0.795-0.602-1.254-1.4-1.254-2.398c0-1.004,0.402-1.801,1.254-2.395
			c0.75-0.551,1.604-0.805,2.645-0.805c1.059,0,1.959,0.254,2.654,0.805C196.666,48.489,197.059,49.286,197.059,50.29z
			 M196.016,50.29c0-0.695-0.297-1.301-0.898-1.754c-0.508-0.395-1.152-0.551-1.955-0.551c-0.85,0-1.553,0.203-2.049,0.656
			c-0.551,0.445-0.805,1-0.805,1.648c0,0.699,0.254,1.246,0.805,1.65c0.496,0.4,1.201,0.654,2.102,0.654
			c0.85,0,1.547-0.199,2.051-0.654C195.762,51.489,196.016,50.94,196.016,50.29z"/>
		<path fill="#B68643" d="M207.215,53.344h-1.246l-4.656-5.008v5.008h-0.996v-6.109h1.246l4.656,5.004v-5.004h0.996V53.344z"/>
		<path fill="#B68643" d="M214.625,47.239c1.043,0,1.895,0.301,2.492,0.855c0.602,0.547,0.953,1.301,0.953,2.25
			c0,0.846-0.352,1.596-1,2.145c-0.598,0.547-1.344,0.803-2.25,0.803h-4.051V47.19h3.859v0.049H214.625z M214.867,52.442
			c0.602,0,1.105-0.203,1.5-0.598c0.4-0.4,0.602-0.904,0.602-1.5c0-0.656-0.201-1.203-0.648-1.605
			c-0.395-0.402-0.945-0.598-1.646-0.598h-2.955v4.254h3.148V52.442L214.867,52.442z"/>
		<path fill="#B68643" d="M228.723,50.29c0,1-0.4,1.797-1.25,2.398c-0.699,0.547-1.594,0.805-2.652,0.805
			c-1.098,0-1.941-0.258-2.695-0.805c-0.801-0.602-1.258-1.4-1.258-2.398c0-1.004,0.4-1.801,1.258-2.395
			c0.754-0.551,1.598-0.805,2.645-0.805c1.053,0,1.949,0.254,2.654,0.805C228.322,48.489,228.723,49.286,228.723,50.29z
			 M227.674,50.29c0-0.695-0.295-1.301-0.896-1.754c-0.504-0.395-1.152-0.551-1.957-0.551c-0.844,0-1.547,0.203-2.047,0.656
			c-0.551,0.445-0.801,1-0.801,1.648c0,0.699,0.25,1.246,0.801,1.65c0.5,0.4,1.203,0.654,2.102,0.654
			c0.848,0,1.553-0.199,2.047-0.654C227.426,51.489,227.674,50.94,227.674,50.29z"/>
		<path fill="#B68643" d="M238.875,53.344h-1.246l-4.648-5.008v5.008h-1.004v-6.109h1.254l4.652,5.004v-5.004h0.992V53.344z"/>
		<path fill="#B68643" d="M255.232,47.239l-1.998,6.109h-1.299l-1.502-5.105l-1.496,5.105h-1.305l-2.004-6.109h1.105l1.547,5.102
			l1.496-5.102h1.303l1.498,5.102l1.555-5.102H255.232z"/>
		<path fill="#B68643" d="M259.184,53.344h-0.998v-5.102l-1,0.398v-0.855c0.35-0.094,0.701-0.293,1-0.547h0.998V53.344z"/>
	</g>
	<g>
		<path fill="#B68643" d="M71.224,4.774H61.37v11.908h-7.054V4.774h-9.854v29.761h9.854V20.129h7.054v14.406h9.854V4.774z
			 M64.372,34.079h-2.554V19.728H47.414v14.351h-2.55V5.227h2.55v11.903h14.404V5.227h2.554V34.079z"/>
		<path fill="#B68643" d="M102.534,31.188H88.732V20.08h11.852v-3.45H88.732V8.176h13.252V4.774H78.876v29.761h23.656v-3.348
			H102.534z M95.68,34.079H79.324V5.227H95.13v2.5H81.878v9.353H93.73v2.502H81.878V31.59H95.68V34.079z"/>
		<path fill="#B68643" d="M238.076,31.131h-12.549V4.824h-9.754V34.59h22.303V31.131z M231.178,34.133h-15.006V5.278h2.551V31.59
			h12.455V34.133z"/>
		<path fill="#B68643" d="M261.088,4.477L261.088,4.477h-3.459v19.255c0,3.452-1.193,5.798-3.395,6.851
			c-0.852-0.447-2.9-2.098-2.9-6.751V4.477h-9.807v19.505c0,6.548,3.75,10.608,9.807,10.608c0.053,0,0.053,0,0.102,0h6.6
			c0.949,0,1.801-0.105,2.648-0.355c0.301-0.045,0.553-0.156,0.852-0.246c0.25-0.055,0.449-0.152,0.65-0.258
			c0.35-0.145,0.648-0.293,0.951-0.496c0.203-0.1,0.348-0.254,0.551-0.348c0.051-0.051,0.098-0.107,0.146-0.107
			c0.154-0.146,0.354-0.25,0.502-0.396c0.047,0,0.047-0.047,0.1-0.1c0.148-0.148,0.35-0.303,0.506-0.5
			c0.045-0.049,0.098-0.104,0.145-0.15l0,0c0.154-0.152,0.301-0.355,0.449-0.555c0.109-0.146,0.258-0.348,0.348-0.549
			c0.053-0.045,0.109-0.146,0.109-0.201c0.094-0.098,0.148-0.195,0.199-0.344c0.049-0.051,0.094-0.152,0.094-0.25
			c0.055-0.102,0.111-0.203,0.16-0.299c0.094-0.201,0.143-0.354,0.242-0.555c0.055-0.049,0.055-0.146,0.105-0.195
			c0.043-0.152,0.098-0.252,0.098-0.402c0.051-0.152,0.102-0.299,0.148-0.5c0-0.049,0.051-0.1,0.051-0.152
			c0-0.048,0-0.098,0.055-0.149c0.047-0.202,0.09-0.349,0.09-0.55c0.055-0.099,0.055-0.202,0.055-0.301
			c0.047-0.146,0.047-0.296,0.094-0.498c0-0.102,0-0.151,0-0.252c0.059-0.248,0.059-0.447,0.059-0.699
			c0-0.349,0.049-0.7,0.049-1.049V4.376h-6.402V4.477L261.088,4.477z M241.928,23.982V4.924h2.553v18.808
			c0,1.649,0.246,3,0.75,4.151c0.156,0.449,0.395,0.848,0.648,1.25c0.305,0.449,0.695,0.852,1.201,1.195
			c1.105,0.859,2.498,1.307,4.254,1.307c0.494,0,0.951-0.045,1.354-0.1h0.094c0.055,0,0.154,0,0.254-0.055h0.049
			c0.15-0.043,0.244-0.043,0.352-0.09c0.146-0.055,0.248-0.055,0.396-0.111c0.152-0.045,0.248-0.092,0.355-0.146
			c0.047,0,0.047,0,0.094-0.051c2.551-1.045,3.904-3.599,3.904-7.349V4.924h2.551V23.98c0,6.251-3.604,10.153-9.35,10.153
			C245.535,34.079,241.928,30.231,241.928,23.982z"/>
		<path fill="#B68643" d="M126.542,18.73c-1.3-0.851-2.452-1.45-4.752-2.702c-2.548-1.351-4-2.6-4-4.4
			c0-1.502,0.498-2.151,0.897-2.5c0.503,0.5,0.902,1.101,1.202,1.597l0.25,0.401l0,0l0,0l0,0l0,0h6.048l2.854-2
			c-1.6-3.098-4.05-4.7-7.452-4.7c-3.152,0-2.804,0-6.252,0l0,0c-4.25,0-7.202,3-7.202,7.303c0,4.599,2.9,6.701,6.002,8.25
			l2.101,1.052c3.05,1.5,4.798,2.899,4.798,5.802c0,1.8-0.896,3.302-2.496,4.052l-0.103,0.043c-0.052,0-0.1,0.055-0.151,0.055
			c0,0-0.05,0-0.099,0.047c-2.352-1.047-3.451-4.25-3.451-4.25h-5.5l0,0l0,0l0,0l0,0l-2.952,1.703l0.151,0.348
			c1.248,2.758,3.95,6,9.45,6c0.101,0,0.2,0,0.3,0c1.15,0,4.801,0,5.5,0c6.305,0,9.055-4.195,9.055-8.201
			C130.742,22.633,128.59,20.08,126.542,18.73z M106.934,28.731l2.15-1.249c1.152,2.202,2.85,4.499,6.802,4.499
			c0.454,0,0.902-0.043,1.298-0.098c0.103,0,0.202-0.055,0.252-0.055c0.101-0.043,0.25-0.043,0.353-0.09
			c0.098-0.055,0.246-0.055,0.348-0.104c0.101-0.045,0.25-0.1,0.351-0.154c0.052-0.043,0.1-0.043,0.151-0.043h0.046
			c1.801-0.852,2.803-2.502,2.803-4.502c0-3.101-1.853-4.601-5.053-6.202l-2.102-1.048c-3-1.5-5.75-3.454-5.75-7.856
			c0-4.05,2.8-6.85,6.802-6.85c3.052,0,5.404,1.399,6.954,4.199l-2.104,1.404c-0.45-0.75-0.996-1.651-1.95-2.252
			c-0.544-0.357-1.099-0.605-1.698-0.706c-0.4-0.1-0.8-0.1-1.2-0.1c-2.602,0-4.298,1.698-4.298,4.298
			c0,2.501,1.098,3.904,4.25,5.555l2.1,1.048c2.351,1.152,4.003,2.301,5.051,3.65c0.75,0.954,1.252,2.152,1.5,3.65
			c0.048,0.403,0.1,0.85,0.1,1.304c0,4.555-3.25,7.555-8.102,7.555C110.686,34.436,108.136,31.333,106.934,28.731z"/>
		<path fill="#B68643" d="M154.9,18.73c-1.303-0.851-2.451-1.45-4.752-2.702c-2.551-1.351-4-2.6-4-4.4
			c0-1.502,0.498-2.151,0.899-2.5c0.498,0.5,0.896,1.101,1.2,1.597l0.252,0.401l0,0l0,0l0,0l0,0h6.051l2.855-2
			c-1.609-3.098-4.061-4.7-7.458-4.7c-3.15,0-2.798,0-6.252,0l0,0c-4.25,0-7.2,3-7.2,7.303c0,4.599,2.9,6.701,6,8.25l2.102,1.052
			c3.049,1.5,4.801,2.899,4.801,5.802c0,1.8-0.898,3.302-2.5,4.052l-0.103,0.043c-0.048,0-0.1,0.055-0.149,0.055
			c0,0-0.051,0-0.101,0.047c-2.352-1.047-3.452-4.25-3.452-4.25h-5.5l0,0l0,0l0,0l0,0l-2.952,1.703l0.15,0.348
			c1.25,2.758,3.952,6,9.452,6c0.1,0,0.202,0,0.3,0c1.15,0,4.804,0,5.504,0c6.296,0,9.054-4.195,9.054-8.201
			C159.105,22.633,157.002,20.08,154.9,18.73z M135.294,28.731l2.15-1.249c1.151,2.202,2.854,4.499,6.802,4.499
			c0.452,0,0.9-0.043,1.3-0.098c0.103,0,0.198-0.055,0.248-0.055c0.1-0.043,0.254-0.043,0.354-0.09
			c0.1-0.055,0.252-0.055,0.348-0.104c0.1-0.045,0.252-0.1,0.352-0.154c0.051-0.043,0.101-0.043,0.15-0.043h0.05
			c1.798-0.852,2.8-2.502,2.8-4.502c0-3.101-1.854-4.601-5.05-6.202l-2.104-1.048c-3-1.5-5.752-3.454-5.752-7.856
			c0-4.05,2.8-6.85,6.802-6.85c3.05,0,5.402,1.399,6.954,4.199l-2.099,1.398c-0.453-0.75-1.002-1.652-1.953-2.252
			c-0.551-0.352-1.101-0.602-1.702-0.7c-0.398-0.1-0.796-0.1-1.2-0.1c-2.598,0-4.3,1.698-4.3,4.298c0,2.501,1.1,3.904,4.25,5.555
			l2.1,1.048c2.353,1.152,4.004,2.301,5.054,3.65c0.75,0.954,1.25,2.152,1.502,3.65c0.049,0.403,0.096,0.85,0.096,1.304
			c0,4.555-3.247,7.555-8.102,7.555C139.094,34.436,136.546,31.333,135.294,28.731z"/>
		<g>
			<path fill="#B68643" d="M288.793,12.426c0-3.05-1.705-4.651-4.906-4.651h-6.297v9.253h6.654
				C287.293,17.03,288.793,15.528,288.793,12.426z M288.297,12.426c0,3.652-2.25,4.104-4.004,4.104V8.229
				C286.996,8.378,288.297,9.778,288.297,12.426z"/>
			<path fill="#B68643" d="M290.793,25.484c0-3.802-2.148-5.952-6.098-5.952h-7.107v12.002h7.25
				C289.996,31.59,290.793,27.784,290.793,25.484z M284.84,31.131h-0.496V20.03h0.352c3.695,0,5.652,1.899,5.652,5.452
				C290.293,28.083,289.34,31.131,284.84,31.131z"/>
			<path fill="#B68643" d="M294.152,18.131c1.246,0,3.844-2.004,3.844-5.907c0-6.702-5.9-7.402-8.051-7.402
				c-1.648,0-15.354,0-15.354,0V34.59h16.303C296,34.59,300,32.383,300,25.83C300.043,19.728,294.152,18.131,294.152,18.131z
				 M275.039,5.278h9.105c5.252,0,7.104,3.598,7.104,7c0,2.101-0.604,3.75-1.799,4.801c-0.355,0.353-0.801,0.6-1.297,0.8
				l-0.605,0.252l0.605,0.196c3.197,0.952,5.051,3.606,5.051,7.256c0,5.257-3.156,8.495-8.207,8.495h-10.055v-28.8H275.039z"/>
		</g>
		<path fill="#B68643" d="M206.518,29.034h-5.65l-0.053-0.049v0.049h-0.201l0.109,0.1l-0.156,0.352
			c-0.049,0.146-0.146,0.299-0.248,0.398c-0.648,1.15-2.947,4.598-7.805,5.65c-8.096-1.896-11.299-8.752-11.299-15.802
			c0-6.954,3.094-14.108,11.053-15.856c5.299,1.048,7.701,4.798,8.152,5.7l0.246,0.45l-0.053,0.05h0.053l0,0l0,0h5.107l3-2.3
			c-1.152-1.851-5.051-7.552-13.559-7.552h-5.297c-0.156,0-0.65,0-0.752,0h-0.1c0,0-0.055,0-0.098,0
			c-12.16,0.3-17.66,10.256-17.66,19.555c0,9.406,5.652,19.459,18.051,19.553c-0.094,0-0.195,0-0.195,0h5.098
			c10.457,0,14.758-6.799,15.406-8.053L206.518,29.034z M171.707,19.728c0-9.2,5.551-19.104,17.758-19.104c2.496,0,4.6,0.5,6.35,1.2
			c1.65,0.75,3.404,1.8,4.951,3.302c0.953,1,1.656,1.898,2.053,2.599l-2.004,1.602c-0.496-0.898-2.947-4.75-8.301-5.852
			c-0.299-0.051-0.596-0.15-0.951-0.15c-0.648-0.1-1.348-0.146-2.098-0.146c-10.457,0-15.205,8.601-15.205,16.55
			c0,7.306,3.955,15.054,12.607,16.362c0.242,0.045,0.441,0.045,0.697,0.092c0.646,0.053,1.299,0.102,1.949,0.102
			c7.254,0,10.455-4.75,11.252-6.15c0.105-0.152,0.203-0.352,0.25-0.451l1.297,0.953l0.605,0.6
			c-0.449,0.949-0.998,1.746-1.604,2.496c-2,2.254-5.756,5.053-11.801,5.053C177.258,38.836,171.707,28.932,171.707,19.728z"/>
		<path fill="#B68643" d="M29.36,10.026h5.102l3-2.3C36.31,5.876,32.41,0.174,23.908,0.174h-5.302c-0.15,0-0.65,0-0.75,0h-0.101
			c0,0-0.052,0-0.102,0C5.5,0.473,0,10.428,0,19.728c0,9.405,5.65,19.456,18.056,19.558c-0.1,0-0.202,0-0.202,0h5.101
			c10.454,0,14.754-6.797,15.41-8.051l-3.103-2.25h-5.706l-0.048-0.053v0.053H29.31l0.097,0.098l-0.148,0.352
			c-0.05,0.148-0.149,0.297-0.25,0.398c-0.649,1.152-2.952,4.602-7.802,5.652C13.104,33.583,9.904,26.73,9.904,19.679
			c0-6.955,3.1-14.107,11.052-15.855c5.302,1.048,7.704,4.8,8.154,5.702L29.36,10.026z M0.4,19.728
			c0-9.2,5.552-19.104,17.756-19.104c2.5,0,4.598,0.5,6.352,1.2c1.65,0.75,3.404,1.8,4.954,3.302c0.998,1,1.646,1.898,2.05,2.599
			l-2.004,1.602c-0.5-0.898-2.954-4.75-8.3-5.852c-0.302-0.051-0.604-0.15-0.952-0.15c-0.649-0.1-1.35-0.146-2.1-0.146
			C7.7,3.178,2.95,11.778,2.95,19.728c0,7.306,3.954,15.054,12.604,16.362c0.252,0.045,0.45,0.045,0.7,0.092
			c0.652,0.053,1.3,0.102,1.954,0.102c7.25,0,10.452-4.75,11.252-6.15c0.098-0.152,0.198-0.352,0.248-0.451l1.3,0.953l0.604,0.6
			c-0.454,0.949-1.002,1.746-1.603,2.496c-2.002,2.254-5.754,5.053-11.802,5.053C5.952,38.836,0.4,28.932,0.4,19.728z"/>
	</g>
</g>
</svg>
